<svg width="89" height="24" viewBox="0 0 89 24" fill="none" xmlns="http://www.w3.org/2000/svg">
<path d="M-3.62098e-06 17.7246L4.416 0.000607967H10.308L14.7 17.7246H10.884L7.356 2.26861H7.38L3.816 17.7246H-3.62098e-06ZM3.168 13.6206V10.7166H11.568V13.6206H3.168ZM25.6192 16.2126C26.4032 16.2926 27.0872 16.4446 27.6712 16.6686C28.2632 16.8846 28.7232 17.2086 29.0512 17.6406C29.3792 18.0646 29.5432 18.6326 29.5432 19.3446C29.5432 20.1686 29.2712 20.8686 28.7272 21.4446C28.1912 22.0286 27.4032 22.4726 26.3632 22.7766C25.3232 23.0806 24.0632 23.2326 22.5832 23.2326C20.3992 23.2326 18.7072 22.9166 17.5072 22.2846C16.3152 21.6606 15.7192 20.8246 15.7192 19.7766C15.7192 19.4806 15.7512 19.2126 15.8152 18.9726C15.8872 18.7406 15.9752 18.5406 16.0792 18.3726L19.4632 18.8646C19.4232 18.9206 19.3792 19.0046 19.3312 19.1166C19.2912 19.2366 19.2712 19.3846 19.2712 19.5606C19.2712 19.9846 19.5872 20.3006 20.2192 20.5086C20.8592 20.7166 21.6832 20.8206 22.6912 20.8206C23.4032 20.8206 24.0112 20.7686 24.5152 20.6646C25.0272 20.5686 25.4152 20.4246 25.6792 20.2326C25.9512 20.0406 26.0872 19.8206 26.0872 19.5726C26.0872 19.2126 25.9112 18.9766 25.5592 18.8646C25.2152 18.7526 24.8152 18.6726 24.3592 18.6246L19.5352 18.1326C18.6472 18.0446 17.9112 17.7886 17.3272 17.3646C16.7432 16.9406 16.4512 16.3686 16.4512 15.6486C16.4512 15.2006 16.5752 14.7926 16.8232 14.4246C17.0712 14.0486 17.3552 13.7406 17.6752 13.5006C17.9952 13.2526 18.2632 13.0966 18.4792 13.0326L20.3752 13.9926C20.2232 14.0166 20.0432 14.1126 19.8352 14.2806C19.6352 14.4486 19.5352 14.6446 19.5352 14.8686C19.5352 15.0926 19.6472 15.2846 19.8712 15.4446C20.1032 15.6046 20.5232 15.7126 21.1312 15.7686L25.6192 16.2126ZM26.8792 4.98061H30.1552L28.8232 9.87661C28.5752 10.8046 28.2072 11.6326 27.7192 12.3606C27.2312 13.0806 26.5792 13.6486 25.7632 14.0646C24.9552 14.4806 23.9352 14.6886 22.7032 14.6886C21.4072 14.6886 20.2832 14.4886 19.3312 14.0886C18.3872 13.6886 17.6592 13.1246 17.1472 12.3966C16.6352 11.6606 16.3792 10.7926 16.3792 9.79261C16.3792 8.79261 16.6392 7.91261 17.1592 7.15261C17.6872 6.39261 18.4032 5.80061 19.3072 5.37661C20.2192 4.95261 21.2512 4.74061 22.4032 4.74061C23.2752 4.74061 24.0712 4.88461 24.7912 5.17261C25.5192 5.45261 26.1032 5.82461 26.5432 6.28861C26.9912 6.75261 27.2232 7.26461 27.2392 7.82461L26.5552 8.00461L26.8792 4.98061ZM22.6792 11.9646C23.2072 11.9646 23.6712 11.8806 24.0712 11.7126C24.4712 11.5366 24.7832 11.2846 25.0072 10.9566C25.2312 10.6206 25.3432 10.2166 25.3432 9.74461C25.3432 9.28061 25.2312 8.88461 25.0072 8.55661C24.7832 8.22861 24.4712 7.97661 24.0712 7.80061C23.6712 7.62461 23.2072 7.53661 22.6792 7.53661C22.1752 7.53661 21.7192 7.62861 21.3112 7.81261C20.9112 7.98861 20.5952 8.24461 20.3632 8.58061C20.1312 8.90861 20.0152 9.30861 20.0152 9.78061C20.0152 10.2446 20.1272 10.6406 20.3512 10.9686C20.5752 11.2886 20.8872 11.5366 21.2872 11.7126C21.6872 11.8806 22.1512 11.9646 22.6792 11.9646ZM32.9466 12.4686V10.0086H41.3946L41.0346 10.6326C41.0346 10.5686 41.0346 10.5086 41.0346 10.4526C41.0346 10.3886 41.0346 10.3286 41.0346 10.2726C41.0346 9.81661 40.9266 9.38061 40.7106 8.96461C40.4946 8.54061 40.1586 8.19661 39.7026 7.93261C39.2546 7.66061 38.6786 7.52461 37.9746 7.52461C37.2706 7.52461 36.6626 7.67661 36.1506 7.98061C35.6466 8.27661 35.2586 8.70461 34.9866 9.26461C34.7226 9.82461 34.5906 10.5006 34.5906 11.2926C34.5906 12.1086 34.7186 12.8086 34.9746 13.3926C35.2386 13.9686 35.6266 14.4126 36.1386 14.7246C36.6586 15.0366 37.3026 15.1926 38.0706 15.1926C38.5666 15.1926 38.9946 15.1486 39.3546 15.0606C39.7146 14.9646 40.0066 14.8446 40.2306 14.7006C40.4626 14.5566 40.6386 14.3966 40.7586 14.2206C40.8786 14.0446 40.9506 13.8726 40.9746 13.7046H44.6466C44.5986 14.2406 44.4146 14.7686 44.0946 15.2886C43.7746 15.8006 43.3306 16.2646 42.7626 16.6806C42.1946 17.0886 41.5026 17.4126 40.6866 17.6526C39.8786 17.8926 38.9546 18.0126 37.9146 18.0126C36.5066 18.0126 35.2786 17.7326 34.2306 17.1726C33.1826 16.6046 32.3706 15.8246 31.7946 14.8326C31.2186 13.8326 30.9306 12.6806 30.9306 11.3766C30.9306 10.0566 31.2226 8.90061 31.8066 7.90861C32.3986 6.90861 33.2186 6.13261 34.2666 5.58061C35.3226 5.02061 36.5426 4.74061 37.9266 4.74061C39.3426 4.74061 40.5666 5.02461 41.5986 5.59261C42.6306 6.15261 43.4266 6.94061 43.9866 7.95661C44.5466 8.96461 44.8266 10.1406 44.8266 11.4846C44.8266 11.6846 44.8226 11.8766 44.8146 12.0606C44.8066 12.2446 44.7946 12.3806 44.7786 12.4686H32.9466ZM56.1274 17.7246V12.3126C56.1274 12.0086 56.1274 11.7326 56.1274 11.4846C56.1274 11.2366 56.1274 11.0126 56.1274 10.8126C56.1274 10.2846 56.0594 9.80461 55.9234 9.37261C55.7874 8.93261 55.5434 8.58061 55.1914 8.31661C54.8394 8.05261 54.3314 7.92061 53.6674 7.92061C53.0914 7.92061 52.5914 8.05261 52.1674 8.31661C51.7514 8.58061 51.4314 8.94861 51.2074 9.42061C50.9834 9.89261 50.8714 10.4366 50.8714 11.0526L49.8394 10.3086C49.8394 9.20461 50.0794 8.23661 50.5594 7.40461C51.0394 6.57261 51.6874 5.92061 52.5034 5.44861C53.3274 4.97661 54.2394 4.74061 55.2394 4.74061C56.2874 4.74061 57.1474 4.95261 57.8194 5.37661C58.4994 5.79261 59.0034 6.37661 59.3314 7.12861C59.6674 7.87261 59.8354 8.74461 59.8354 9.74461C59.8354 10.1526 59.8354 10.6086 59.8354 11.1126C59.8354 11.6166 59.8354 12.1326 59.8354 12.6606V17.7246H56.1274ZM47.1514 17.7246V4.98061H50.8714V17.7246H47.1514ZM69.0401 18.0126C67.6401 18.0126 66.4121 17.7326 65.3561 17.1726C64.3001 16.6046 63.4801 15.8166 62.8961 14.8086C62.3201 13.8006 62.0321 12.6366 62.0321 11.3166C62.0321 9.98061 62.3201 8.82461 62.8961 7.84861C63.4801 6.86461 64.3001 6.10061 65.3561 5.55661C66.4121 5.01261 67.6401 4.74061 69.0401 4.74061C70.0881 4.74061 71.0161 4.89661 71.8241 5.20861C72.6321 5.51261 73.3081 5.91661 73.8521 6.42061C74.3961 6.92461 74.8081 7.47661 75.0881 8.07661C75.3681 8.67661 75.5081 9.27261 75.5081 9.86461C75.5081 9.87261 75.5081 9.88861 75.5081 9.91261C75.5081 9.92861 75.5081 9.94461 75.5081 9.96061H71.8241C71.8241 9.91261 71.8201 9.86861 71.8121 9.82861C71.8121 9.78061 71.8041 9.73261 71.7881 9.68461C71.7241 9.34861 71.5841 9.03261 71.3681 8.73661C71.1521 8.44061 70.8481 8.20061 70.4561 8.01661C70.0721 7.82461 69.5921 7.72861 69.0161 7.72861C68.4001 7.72861 67.8481 7.86461 67.3601 8.13661C66.8801 8.40861 66.5001 8.81261 66.2201 9.34861C65.9401 9.87661 65.8001 10.5326 65.8001 11.3166C65.8001 12.0846 65.9401 12.7486 66.2201 13.3086C66.5001 13.8606 66.8801 14.2846 67.3601 14.5806C67.8481 14.8766 68.4001 15.0246 69.0161 15.0246C69.6481 15.0246 70.1641 14.9286 70.5641 14.7366C70.9641 14.5366 71.2641 14.2726 71.4641 13.9446C71.6641 13.6086 71.7841 13.2406 71.8241 12.8406H75.5081C75.5081 13.4326 75.3681 14.0366 75.0881 14.6526C74.8161 15.2606 74.4081 15.8166 73.8641 16.3206C73.3281 16.8246 72.6561 17.2326 71.8481 17.5446C71.0401 17.8566 70.1041 18.0126 69.0401 18.0126ZM78.2777 23.2326C77.8777 23.2326 77.5177 23.2166 77.1977 23.1846C76.8857 23.1606 76.6897 23.1326 76.6097 23.1006V20.2806C76.7137 20.3286 76.8937 20.3646 77.1497 20.3886C77.4137 20.4206 77.6937 20.4366 77.9897 20.4366C78.3817 20.4366 78.7337 20.3566 79.0457 20.1966C79.3657 20.0446 79.6377 19.8246 79.8617 19.5366C80.0937 19.2566 80.2737 18.9246 80.4017 18.5406L80.6177 17.8926L76.2257 4.98061H80.1017L82.8737 15.4326H82.4417L85.1057 4.98061H88.9337L84.5537 18.3606C84.2257 19.3686 83.8217 20.2366 83.3417 20.9646C82.8617 21.6926 82.2217 22.2526 81.4217 22.6446C80.6217 23.0366 79.5737 23.2326 78.2777 23.2326Z" fill="#391400"/>
</svg>
